<?xml version="1.0" standalone="no"?>
<!DOCTYPE svg PUBLIC "-//W3C//DTD SVG 20010904//EN"
 "http://www.w3.org/TR/2001/REC-SVG-20010904/DTD/svg10.dtd">
<svg version="1.0" xmlns="http://www.w3.org/2000/svg"
 width="512.000000pt" height="512.000000pt" viewBox="0 0 512.000000 512.000000"
 preserveAspectRatio="xMidYMid meet">

<g transform="translate(0.000000,512.000000) scale(0.100000,-0.100000)"
fill="rgba(255, 255, 255, 0.5)" stroke="none">
<path d="M3987 4962 c-33 -20 -45 -50 -102 -267 -49 -186 -54 -228 -27 -263
36 -47 135 -42 162 7 22 42 120 441 114 465 -8 35 -59 76 -92 76 -15 0 -39 -8
-55 -18z"/>
<path d="M2709 4750 c-57 -10 -118 -40 -155 -78 -16 -16 -327 -409 -692 -873
l-663 -845 -397 -229 c-218 -125 -434 -252 -479 -282 -146 -95 -242 -223 -294
-393 -20 -62 -24 -96 -23 -200 0 -109 4 -135 28 -205 101 -297 361 -485 669
-485 72 0 124 9 245 42 7 2 112 -169 267 -437 282 -488 315 -534 423 -587 63
-31 73 -33 172 -33 93 0 112 3 162 27 68 31 147 103 183 163 58 100 69 234 27
341 -11 27 -86 164 -167 304 -81 140 -149 259 -152 266 -2 6 57 46 132 89 74
42 142 87 150 98 29 42 19 87 -50 207 -63 110 -72 130 -59 130 3 0 360 70 793
154 432 85 879 173 994 195 114 23 220 47 235 55 46 24 113 95 134 143 25 57
34 145 19 199 -6 23 -77 156 -157 295 -80 140 -159 277 -175 306 l-30 51 110
165 c60 91 112 179 116 195 7 36 6 38 -122 259 -52 90 -107 172 -121 184 -25
20 -35 21 -127 15 -55 -3 -149 -8 -210 -12 l-110 -6 -185 323 c-102 178 -202
343 -224 366 -66 73 -170 109 -267 93z m109 -218 c27 -20 1191 -2033 1199
-2074 12 -62 -36 -112 -116 -120 l-33 -3 -614 1063 c-473 819 -612 1067 -605
1080 12 22 62 68 81 75 22 8 61 -1 88 -21z m270 -1247 c314 -544 570 -990 569
-992 -5 -4 -1740 -344 -1742 -341 -19 25 -525 914 -523 919 9 26 1112 1419
1118 1412 4 -4 264 -453 578 -998z m704 381 l69 -119 -58 -88 c-32 -49 -62
-88 -66 -86 -4 1 -59 91 -122 200 -130 224 -130 204 5 210 41 2 81 3 89 3 7
-1 45 -54 83 -120z m-2308 -1366 c135 -233 244 -425 243 -426 -6 -6 -770 -445
-803 -462 -291 -148 -650 31 -714 356 -34 170 41 371 176 476 70 53 837 496
846 488 3 -4 117 -198 252 -432z m400 -693 l45 -77 -22 -14 c-127 -78 -149
-88 -158 -75 -25 37 -91 161 -88 163 25 20 166 93 170 88 4 -4 28 -42 53 -85z
m-144 -549 c270 -469 284 -501 262 -577 -44 -143 -233 -191 -335 -83 -22 24
-508 855 -521 892 -4 11 43 43 162 112 92 53 169 97 172 97 3 0 120 -198 260
-441z"/>
<path d="M1267 2069 c-29 -17 -49 -68 -43 -105 12 -60 90 -94 147 -64 53 29
61 121 12 160 -28 22 -86 26 -116 9z"/>
<path d="M905 1859 c-22 -12 -67 -37 -99 -56 -32 -19 -72 -37 -87 -40 -37 -7
-84 12 -104 44 -21 31 -77 55 -110 47 -62 -15 -94 -101 -58 -154 69 -104 182
-154 305 -136 54 8 252 115 291 157 38 41 37 90 -2 130 -36 36 -79 38 -136 8z"/>
<path d="M4710 4397 c-336 -187 -327 -181 -339 -224 -18 -65 23 -123 87 -123
53 0 616 310 644 355 40 64 -5 145 -80 145 -29 0 -97 -33 -312 -153z"/>
<path d="M4435 3586 c-46 -46 -43 -112 6 -148 14 -10 117 -44 229 -74 163 -44
212 -53 239 -47 71 17 100 109 50 159 -21 20 -69 37 -228 80 -230 61 -261 65
-296 30z"/>
</g>
</svg>
