<?xml version="1.0" standalone="no"?>
<!DOCTYPE svg PUBLIC "-//W3C//DTD SVG 20010904//EN"
 "http://www.w3.org/TR/2001/REC-SVG-20010904/DTD/svg10.dtd">
<svg version="1.0" xmlns="http://www.w3.org/2000/svg"
 width="512.000000pt" height="512.000000pt" viewBox="0 0 512.000000 512.000000"
 preserveAspectRatio="xMidYMid meet">

<g transform="translate(0.000000,512.000000) scale(0.100000,-0.100000)"
fill="rgba(255, 255, 255, 0.5)" stroke="none">
<path d="M1667 4782 c-28 -17 -77 -102 -77 -134 0 -10 -5 -18 -10 -18 -6 0
-76 16 -156 36 -172 44 -180 42 -218 -42 -30 -66 -33 -95 -8 -116 9 -9 87 -53
172 -98 85 -45 159 -85 163 -89 4 -5 1 -72 -8 -150 -10 -86 -15 -195 -13 -274
3 -118 6 -138 28 -181 14 -27 36 -57 50 -68 14 -10 117 -58 230 -107 112 -49
214 -99 227 -111 26 -25 43 -78 43 -135 0 -25 -33 -130 -90 -285 l-90 -245
-55 -535 c-31 -294 -57 -540 -59 -546 -3 -6 -31 -15 -63 -19 -201 -24 -478
-97 -573 -152 -55 -31 -107 -79 -126 -115 -8 -15 -14 -54 -14 -86 l0 -60 -72
-17 c-40 -10 -104 -29 -142 -42 -38 -12 -73 -23 -78 -23 -4 0 -8 135 -8 300 0
165 2 300 5 300 2 0 22 -9 44 -21 23 -12 48 -18 60 -14 25 8 318 315 329 346
15 39 -2 63 -90 132 -139 108 -293 196 -444 253 -72 27 -102 30 -127 12 -10
-8 -43 -99 -83 -236 -61 -207 -65 -224 -51 -246 9 -13 61 -49 116 -81 l101
-57 0 -378 0 -379 -32 -22 c-51 -35 -118 -101 -135 -134 -23 -43 -21 -122 5
-171 86 -167 458 -304 1037 -383 1089 -149 2491 -53 3030 208 166 81 239 163
238 268 0 73 -50 143 -150 212 l-33 22 0 379 0 378 100 57 c55 31 108 67 116
80 15 23 12 37 -50 247 -40 137 -73 228 -83 236 -25 18 -55 15 -127 -12 -151
-57 -305 -145 -444 -253 -88 -69 -105 -93 -90 -132 11 -31 303 -338 329 -346
12 -4 36 2 60 14 22 12 42 21 44 21 3 0 5 -135 5 -300 0 -165 -3 -300 -6 -300
-4 0 -50 13 -103 30 -53 16 -118 35 -146 42 l-50 14 -6 59 c-10 101 -47 148
-158 205 -153 77 -358 122 -797 176 l-42 5 -91 172 c-77 145 -112 228 -221
526 -72 194 -130 359 -130 366 0 18 131 378 141 389 6 6 15 2 24 -10 19 -24
167 -320 260 -519 96 -207 152 -265 256 -265 111 0 214 121 194 227 -9 47
-371 847 -411 908 -18 28 -50 67 -71 87 -45 44 -143 104 -184 113 -16 4 -29 9
-29 12 0 3 11 19 25 35 40 47 63 99 76 169 10 54 9 74 -5 129 -18 70 -69 153
-114 187 -77 57 -112 68 -217 68 -86 0 -106 -3 -145 -24 -134 -70 -217 -224
-190 -356 5 -28 12 -60 16 -72 9 -33 -8 -30 -173 24 l-143 47 0 81 0 80 60 -3
c183 -11 304 174 221 336 -21 42 -77 96 -109 106 -15 5 -21 18 -24 61 -3 39
-11 62 -28 79 -27 30 -312 146 -355 146 -16 0 -43 -8 -58 -18z m188 -168 c105
-42 115 -48 109 -68 -9 -29 -24 -46 -40 -46 -20 0 -193 71 -200 82 -6 10 4 78
11 78 3 0 57 -21 120 -46z m-288 -124 c40 -11 89 -29 110 -39 150 -77 258 -99
322 -67 44 23 69 20 102 -13 50 -51 34 -134 -31 -161 -39 -16 -72 -7 -118 34
-20 18 -134 84 -252 146 -118 62 -217 115 -219 116 -9 8 18 3 86 -16z m253
-445 c0 -145 9 -193 44 -226 47 -45 288 -116 627 -183 210 -42 332 -71 365
-87 61 -30 135 -102 165 -160 64 -126 369 -816 369 -835 0 -21 -41 -64 -61
-64 -5 0 -22 12 -39 28 -21 18 -67 108 -150 286 -176 381 -244 487 -323 501
-48 9 -101 -16 -131 -62 -29 -45 -176 -442 -176 -478 0 -13 62 -194 138 -402
135 -369 142 -384 281 -643 79 -146 145 -281 148 -302 4 -30 1 -41 -20 -62
-34 -34 -85 -35 -115 -4 -28 31 -279 502 -463 871 -107 214 -156 300 -172 308
-30 14 -74 -3 -87 -33 -5 -13 -39 -259 -75 -548 -36 -289 -71 -538 -77 -553
-13 -33 -36 -47 -78 -47 -38 0 -80 39 -80 74 0 14 29 312 65 663 l66 638 90
248 c50 137 93 263 96 282 7 46 -14 159 -39 209 -38 74 -74 98 -301 195 -234
101 -233 100 -244 191 -5 43 11 301 23 367 l6 32 74 -37 74 -36 0 -131z m833
114 c128 -35 187 -203 111 -311 -64 -91 -192 -115 -284 -54 -49 32 -90 110
-90 171 1 80 60 163 136 190 48 17 77 18 127 4z m-1936 -1883 c60 -30 148 -83
196 -117 l87 -62 -77 -81 c-42 -45 -87 -92 -99 -105 l-22 -24 -59 33 c-32 18
-99 57 -149 87 l-92 53 39 132 c21 73 39 134 39 135 0 12 44 -5 137 -51z
m3823 51 c0 -1 18 -62 39 -135 l39 -132 -92 -54 c-50 -29 -117 -68 -149 -86
l-59 -33 -22 24 c-12 13 -57 60 -99 105 l-77 81 87 62 c113 81 333 192 333
168z m-1963 -603 c-1 -1 -75 -4 -165 -6 l-163 -5 5 26 c3 14 17 118 31 231 14
113 28 218 31 235 6 26 21 -1 134 -225 71 -140 128 -256 127 -256z m143 -261
c93 -177 117 -210 169 -241 83 -48 204 -31 267 40 59 64 77 175 40 246 -10 19
-15 37 -12 40 11 11 330 -40 465 -73 137 -35 275 -95 295 -128 9 -14 6 -22
-14 -37 -129 -100 -508 -180 -995 -211 -233 -14 -761 -6 -965 15 -372 38 -646
102 -764 176 -67 43 -60 63 40 113 91 46 249 87 483 126 l54 9 -7 -60 c-9 -89
8 -143 64 -199 75 -75 158 -88 251 -41 81 41 107 85 125 213 9 57 17 110 19
117 3 9 55 12 214 12 l209 0 62 -117z m-1512 -327 c57 -29 193 -68 334 -97
688 -139 1777 -107 2273 67 158 56 145 57 145 -18 0 -77 -6 -84 -103 -128
-130 -59 -392 -114 -692 -145 -207 -22 -753 -31 -985 -16 -456 30 -820 102
-962 192 -45 29 -46 31 -50 87 -6 78 -4 81 40 58z m-178 -73 c1 -155 149 -247
521 -323 776 -159 2065 -91 2424 128 94 57 125 104 125 187 l0 57 33 -7 c72
-15 244 -78 318 -116 83 -44 139 -96 139 -131 0 -50 -122 -131 -284 -187 -434
-152 -1177 -230 -2008 -210 -829 21 -1541 160 -1730 340 -21 20 -38 45 -38 57
0 66 159 161 385 227 115 34 115 34 115 -22z"/>
<path d="M3398 4553 c-8 -10 -22 -44 -32 -77 -22 -72 -81 -135 -152 -161 -60
-22 -74 -32 -85 -62 -14 -38 8 -70 60 -88 94 -32 156 -95 182 -186 17 -59 36
-79 74 -79 33 0 65 25 65 51 0 29 48 116 83 149 20 19 64 47 99 61 47 19 64
32 71 52 10 31 -11 74 -41 84 -108 35 -178 102 -203 193 -16 59 -35 80 -74 80
-18 0 -38 -8 -47 -17z m90 -274 l41 -46 -41 -45 -42 -45 -43 45 -43 45 43 47
c23 25 42 46 43 46 0 -1 19 -22 42 -47z"/>
<path d="M728 3968 c-9 -7 -22 -33 -28 -58 -26 -102 -102 -186 -194 -216 -56
-18 -86 -45 -86 -78 1 -34 22 -53 85 -77 32 -12 78 -40 103 -63 43 -39 92
-123 92 -157 0 -30 40 -69 70 -69 30 0 70 39 70 69 0 34 49 118 92 157 25 23
71 51 103 63 63 24 84 43 85 77 0 33 -30 60 -87 79 -28 9 -72 34 -96 56 -47
41 -97 126 -97 166 0 50 -72 82 -112 51z m95 -295 l55 -57 -54 -54 -54 -54
-54 53 -54 54 52 56 c28 31 52 57 53 58 1 0 26 -25 56 -56z"/>
<path d="M3887 3813 c-8 -10 -19 -31 -23 -48 -21 -89 -89 -165 -176 -196 -44
-16 -59 -28 -69 -51 -10 -25 -9 -33 7 -55 10 -14 40 -33 65 -43 72 -27 115
-66 149 -133 16 -33 30 -68 30 -77 0 -44 82 -68 112 -32 8 9 22 43 32 76 22
72 81 135 152 161 62 23 87 46 87 80 0 34 -25 57 -87 80 -70 25 -131 91 -153
163 -22 73 -38 92 -78 92 -18 0 -39 -8 -48 -17z m89 -363 l-41 -45 -45 45 -45
45 45 45 45 45 41 -45 42 -45 -42 -45z"/>
<path d="M836 2908 c-8 -13 -30 -78 -50 -146 -37 -131 -37 -160 3 -181 59 -32
88 1 129 146 37 129 39 163 14 186 -27 25 -78 22 -96 -5z"/>
<path d="M4187 2912 c-24 -26 -21 -58 15 -185 41 -145 70 -178 129 -146 40 21
40 50 3 181 -20 68 -42 133 -50 146 -18 28 -73 30 -97 4z"/>
<path d="M1187 2599 c-48 -50 -95 -102 -103 -115 -28 -42 5 -94 59 -94 28 0
46 14 130 102 80 85 97 108 97 134 0 38 -27 64 -66 64 -24 0 -45 -17 -117 -91z"/>
<path d="M3767 2672 c-36 -40 -23 -71 79 -180 91 -97 99 -103 132 -100 41 4
78 44 68 75 -3 10 -50 65 -104 121 -82 87 -102 102 -128 102 -17 0 -38 -8 -47
-18z"/>
</g>
</svg>
