<?xml version="1.0" standalone="no"?>
<!DOCTYPE svg PUBLIC "-//W3C//DTD SVG 20010904//EN"
 "http://www.w3.org/TR/2001/REC-SVG-20010904/DTD/svg10.dtd">
<svg version="1.0" xmlns="http://www.w3.org/2000/svg"
 width="512.000000pt" height="512.000000pt" viewBox="0 0 512.000000 512.000000"
 preserveAspectRatio="xMidYMid meet">

<g transform="translate(0.000000,512.000000) scale(0.100000,-0.100000)"
fill="rgba(255, 255, 255, 0.5)" stroke="none">
<path d="M1309 5106 c-99 -27 -191 -105 -241 -204 -23 -47 -23 -48 -26 -502
l-3 -455 22 -17 c28 -23 71 -23 100 1 l24 19 5 439 c4 390 7 441 22 470 24 43
82 89 132 102 30 9 398 11 1346 9 l1305 -3 5 -380 c5 -367 6 -381 27 -421 12
-22 39 -56 59 -74 75 -65 71 -65 482 -68 l372 -3 0 -1852 c0 -1780 -1 -1854
-19 -1893 -22 -49 -78 -97 -130 -113 -27 -7 -197 -11 -554 -11 l-516 0 22 48
c18 38 22 65 22 142 0 148 2 145 -408 558 -194 194 -369 365 -391 380 -33 22
-50 27 -103 27 l-63 1 -69 68 -69 68 51 82 c91 146 149 291 193 481 27 114 27
452 1 575 -120 559 -532 990 -1077 1124 -495 121 -1010 -19 -1369 -374 -285
-282 -431 -632 -431 -1034 0 -172 20 -306 70 -456 166 -507 578 -868 1115
-977 136 -27 415 -25 552 5 180 39 374 118 505 206 l53 36 71 -71 72 -71 -1
-57 c0 -31 6 -68 13 -81 7 -14 159 -172 338 -352 l327 -328 -884 0 c-633 0
-894 3 -922 11 -21 7 -54 25 -74 41 -63 53 -69 74 -75 265 -5 161 -7 174 -27
194 -27 28 -75 29 -104 3 -20 -18 -20 -26 -17 -209 3 -176 5 -194 27 -238 37
-75 104 -142 179 -179 l67 -33 1750 0 1750 0 67 33 c75 37 142 103 179 179
l24 48 0 1905 0 1905 -32 65 c-28 57 -82 115 -465 496 -401 400 -437 433 -493
455 l-60 24 -1340 2 c-1040 1 -1350 -1 -1386 -11z m3521 -928 c0 -5 -132 -8
-292 -8 -259 0 -297 2 -328 18 -59 29 -60 36 -60 372 l0 305 340 -340 c187
-187 340 -343 340 -347z m-3104 -603 c269 -55 505 -185 694 -381 180 -187 300
-424 345 -678 34 -196 14 -451 -49 -639 -133 -395 -466 -717 -862 -832 -679
-198 -1387 167 -1609 830 -87 258 -88 575 -3 830 67 199 163 352 322 511 222
222 467 338 796 378 68 8 288 -3 366 -19z m907 -2313 l57 -58 -60 -59 -60 -59
-60 59 -60 59 57 58 c32 32 60 58 63 58 3 0 31 -26 63 -58z m604 -464 c199
-200 367 -376 373 -391 57 -156 -105 -310 -252 -238 -29 14 -156 134 -396 375
-306 306 -353 356 -344 372 14 25 236 244 248 244 5 0 172 -163 371 -362z"/>
<path d="M1298 3435 c-159 -26 -339 -98 -472 -188 -85 -57 -210 -179 -278
-271 -76 -102 -151 -255 -183 -376 -40 -152 -32 -198 36 -215 47 -12 74 26
103 145 92 374 381 658 761 746 57 13 119 19 215 19 151 0 244 -17 369 -67
296 -117 518 -367 603 -678 20 -75 23 -107 22 -265 0 -167 -2 -186 -28 -270
-15 -49 -49 -132 -77 -184 -47 -90 -116 -191 -130 -191 -3 0 -19 18 -34 40
-32 47 -97 92 -172 120 -43 16 -251 60 -285 60 -4 0 -8 21 -8 46 0 42 5 52 54
105 54 58 98 136 111 197 3 18 16 37 26 43 11 6 29 25 39 42 18 29 20 52 20
255 0 202 -2 226 -20 262 -20 40 -58 72 -104 90 -14 5 -31 22 -37 37 -6 16
-22 41 -37 56 -52 55 -61 57 -321 57 -218 0 -245 -2 -295 -21 -72 -26 -145
-93 -181 -166 l-30 -58 -3 -220 c-2 -120 -1 -234 3 -251 3 -18 23 -50 45 -73
22 -23 40 -49 40 -59 0 -35 58 -138 108 -193 47 -51 52 -61 52 -103 0 -25 -1
-46 -2 -46 -21 0 -189 -35 -247 -50 -97 -27 -148 -57 -204 -121 l-45 -51 -45
64 c-85 120 -153 272 -172 385 -10 60 -38 93 -80 93 -24 0 -39 -7 -54 -26 -27
-34 -26 -49 4 -164 93 -346 353 -637 689 -770 121 -48 228 -70 367 -77 260
-12 486 49 697 190 263 177 439 443 498 754 25 133 15 375 -20 502 -55 196
-146 359 -282 501 -162 169 -356 279 -584 331 -114 26 -318 33 -432 14z m397
-575 c21 -71 40 -87 118 -104 22 -5 27 -12 27 -36 l0 -30 -103 1 c-114 0 -108
2 -232 -54 l-89 -40 -153 -5 -153 -5 0 84 c1 118 27 172 105 213 25 14 66 16
250 14 l219 -3 11 -35z m145 -398 c0 -75 -1 -78 -34 -104 -27 -21 -35 -37 -41
-75 -15 -103 -72 -185 -159 -231 -74 -39 -178 -38 -258 1 -32 16 -73 47 -93
70 -32 37 -44 66 -75 184 -7 30 -19 47 -40 60 -21 12 -30 25 -30 44 l0 26 163
6 c170 6 228 18 309 66 45 27 106 37 194 33 l64 -4 0 -76z m-248 -630 c4 -48
-1 -54 -51 -71 -48 -16 -104 -14 -152 5 -38 16 -40 19 -35 47 3 16 6 37 6 46
0 14 15 16 114 16 l114 0 4 -43z m-348 -156 c70 -53 128 -71 231 -71 78 0 98
4 150 28 33 16 72 40 87 53 l26 26 113 -22 c130 -25 173 -40 213 -78 32 -30
62 -92 49 -101 -141 -98 -201 -131 -308 -168 -244 -83 -540 -65 -765 46 -77
38 -200 125 -200 141 0 26 39 79 72 100 38 24 81 37 198 61 47 9 86 18 87 18
2 1 23 -14 47 -33z"/>
<path d="M1580 4608 c-65 -44 -75 -74 -78 -253 -5 -221 13 -275 102 -316 39
-18 83 -19 806 -19 l766 0 44 23 c88 44 107 110 98 346 -5 141 -16 174 -70
213 l-33 23 -801 3 -801 2 -33 -22z m1588 -263 c1 -71 0 -140 -3 -153 l-5 -22
-753 2 -752 3 -3 140 c-1 76 0 145 2 152 4 11 147 13 758 11 l753 -3 3 -130z"/>
<path d="M3190 3150 c-30 -30 -27 -83 6 -109 26 -21 34 -21 685 -21 461 0 665
3 682 11 24 11 47 47 47 73 0 7 -9 25 -21 40 l-20 26 -680 0 c-666 0 -679 0
-699 -20z"/>
<path d="M3190 2700 c-30 -30 -27 -83 6 -109 26 -21 34 -21 694 -21 621 0 669
1 689 18 11 9 24 31 27 49 5 26 1 37 -19 57 l-26 26 -676 0 c-662 0 -675 0
-695 -20z"/>
<path d="M3196 2249 c-33 -26 -36 -79 -6 -109 20 -20 33 -20 695 -20 l676 0
26 26 c20 20 24 31 19 57 -3 18 -16 40 -27 50 -20 16 -68 17 -689 17 -660 0
-668 0 -694 -21z"/>
<path d="M3220 1813 c-34 -13 -50 -37 -50 -74 0 -69 -2 -69 397 -69 349 0 352
0 373 22 25 27 26 69 1 99 l-19 24 -344 2 c-188 1 -350 -1 -358 -4z"/>
</g>
</svg>
