<?xml version="1.0" standalone="no"?>
<!DOCTYPE svg PUBLIC "-//W3C//DTD SVG 20010904//EN"
 "http://www.w3.org/TR/2001/REC-SVG-20010904/DTD/svg10.dtd">
<svg version="1.0" xmlns="http://www.w3.org/2000/svg"
 width="512.000000pt" height="512.000000pt" viewBox="0 0 512.000000 512.000000"
 preserveAspectRatio="xMidYMid meet">

<g transform="translate(0.000000,512.000000) scale(0.100000,-0.100000)"
fill="rgba(255, 255, 255, 0.5)" stroke="none">
<path d="M443 4956 c-27 -23 -28 -28 -31 -135 l-4 -111 -89 0 c-168 0 -244
-34 -293 -131 l-26 -53 0 -2095 c0 -1447 3 -2108 11 -2134 13 -49 73 -115 124
-138 37 -17 79 -19 588 -19 l548 0 26 26 c20 20 24 31 19 57 -12 58 -22 62
-186 65 l-150 3 0 960 0 959 340 0 340 0 0 -960 0 -960 -45 0 c-82 0 -126 -78
-72 -128 l23 -22 1690 0 c1612 0 1691 1 1729 19 51 23 111 89 124 138 8 26 11
687 11 2134 l0 2095 -26 53 c-49 97 -125 131 -293 131 l-89 0 -4 111 c-3 107
-4 112 -31 135 -27 23 -34 24 -182 24 -84 0 -161 -3 -170 -6 -32 -13 -45 -59
-45 -164 l0 -100 -270 0 -270 0 0 101 c0 164 -5 168 -212 169 -152 0 -158 -1
-185 -24 -27 -23 -28 -28 -31 -135 l-4 -111 -269 0 -269 0 0 110 c0 104 -1
112 -25 135 -24 24 -27 25 -185 25 -158 0 -161 -1 -185 -25 -24 -23 -25 -31
-25 -135 l0 -110 -269 0 -269 0 -4 111 c-3 107 -4 112 -31 135 -27 23 -33 24
-185 24 -207 -1 -212 -5 -212 -169 l0 -101 -270 0 -270 0 0 100 c0 105 -13
151 -45 164 -9 3 -86 6 -170 6 -148 0 -155 -1 -182 -24z m247 -326 l0 -200
-65 0 -65 0 0 200 0 200 65 0 65 0 0 -200z m970 0 l0 -200 -65 0 -65 0 0 200
0 200 65 0 65 0 0 -200z m960 0 l0 -200 -60 0 -60 0 0 200 0 200 60 0 60 0 0
-200z m970 0 l0 -200 -65 0 -65 0 0 200 0 200 65 0 65 0 0 -200z m970 0 l0
-200 -65 0 -65 0 0 200 0 200 65 0 65 0 0 -200z m-4148 -186 c3 -112 4 -117
31 -140 27 -23 34 -24 183 -24 l156 0 29 29 c29 29 29 31 29 140 l0 111 270 0
270 0 0 -111 c0 -109 0 -111 29 -140 l29 -29 156 0 c149 0 156 1 183 24 27 24
28 27 31 140 l4 116 266 -2 267 -3 5 -118 c7 -161 1 -157 210 -157 209 0 203
-4 210 157 l5 118 267 3 266 2 4 -116 c3 -113 4 -116 31 -140 27 -23 34 -24
183 -24 l156 0 29 29 c29 29 29 31 29 140 l0 111 270 0 270 0 0 -111 c0 -109
0 -111 29 -140 l29 -29 156 0 c149 0 156 1 183 24 27 23 28 28 31 140 l4 116
88 0 c94 0 135 -10 156 -38 10 -13 13 -76 14 -259 l0 -243 -1790 -2 -1789 -3
-22 -22 c-27 -27 -29 -75 -4 -103 16 -17 33 -20 154 -22 l136 -3 3 -337 2
-338 -135 0 -135 0 0 180 c0 244 14 230 -230 230 l-180 0 0 135 0 135 60 0
c47 0 64 4 80 20 25 25 26 71 1 101 l-19 24 -476 3 -476 3 0 242 c1 258 2 267
51 286 13 5 65 10 115 10 l92 1 4 -116z m416 -711 l3 -133 -251 0 -251 0 -24
-25 -25 -24 0 -231 0 -231 25 -24 c23 -24 31 -25 135 -25 l110 0 0 -169 c0
-93 4 -181 10 -195 16 -42 57 -56 170 -56 l100 0 0 -1165 0 -1165 -319 0 -320
0 -20 26 -21 27 0 1763 0 1764 338 -2 337 -3 3 -132z m1660 -620 l2 -753 -135
0 -135 0 0 180 c0 244 14 230 -230 230 l-180 0 0 550 0 550 338 -2 337 -3 3
-752z m822 2 l0 -755 -94 0 c-84 0 -98 -3 -120 -22 -36 -33 -39 -75 -6 -108
19 -19 33 -20 330 -20 l311 0 -3 -132 -3 -133 -750 0 -750 0 -3 133 -3 132
301 0 c287 0 301 1 320 20 30 30 27 83 -6 109 -22 17 -41 21 -110 21 l-84 0 0
755 0 755 335 0 335 0 0 -755z m830 -415 l0 -1170 -240 0 c-154 0 -248 -4
-263 -11 -42 -19 -47 -46 -47 -278 0 -279 -9 -264 157 -271 l118 -5 6 -190 c3
-104 6 -191 7 -192 1 -1 15 -9 32 -18 20 -10 59 -15 130 -15 l100 0 0 -130 0
-130 -340 0 -340 0 0 750 0 750 158 0 c86 0 174 5 194 11 65 17 70 37 66 290
l-3 221 -28 24 c-27 23 -32 24 -208 24 l-179 0 0 748 c0 412 3 752 7 755 3 4
156 7 340 7 l333 0 0 -1170z m830 -594 l0 -1763 -21 -27 -20 -26 -320 0 -319
0 0 130 0 130 170 0 c198 0 222 7 240 68 8 25 10 170 8 450 l-3 414 -28 24
c-27 23 -32 24 -208 24 l-179 0 0 1163 c0 640 3 1167 7 1170 3 4 156 7 340 7
l333 0 0 -1764z m-3730 1214 l0 -130 -405 0 -405 0 0 130 0 130 405 0 405 0 0
-130z m415 -415 l0 -130 -477 -3 -478 -2 0 135 0 135 478 -2 477 -3 0 -130z
m415 -415 l0 -130 -545 0 -545 0 0 130 0 130 545 0 545 0 0 -130z m0 -666 l0
-386 29 -29 29 -29 181 0 181 0 0 -545 0 -545 -340 0 -340 0 0 960 0 960 130
0 130 0 0 -386z m830 -164 l0 -130 -340 0 -340 0 0 130 0 130 340 0 340 0 0
-130z m410 -620 l0 -750 -335 0 -335 0 0 545 0 545 176 0 176 0 29 29 29 29 0
176 0 176 130 0 130 0 0 -750z m1250 210 l0 -130 -410 0 -410 0 0 130 0 130
410 0 410 0 0 -130z m-5 -415 l0 -130 -267 -3 -268 -2 0 135 0 135 268 -2 267
-3 0 -130z"/>
</g>
</svg>
